<?xml version="1.0" encoding="UTF-8"?>
<svg xmlns="http://www.w3.org/2000/svg" id="Gruppe_62" data-name="Gruppe 62" width="219.912" height="52.203" viewBox="0 0 219.912 52.203">
  <g id="Gruppe_5" data-name="Gruppe 5" transform="translate(69.462 12.187)">
    <path id="Pfad_2" data-name="Pfad 2" d="M127.347,14.32h-16.17l-.315,1.8h0a.97.97,0,0,1,.987,1.183L110.5,24.975h-8.068l1.3-7.379a2.7,2.7,0,0,0-2.749-3.277H84.811l-.315,1.8h0a.966.966,0,0,1,.987,1.183L81.663,38.975a2.793,2.793,0,0,0,2.749,3.277H100.59l.315-1.8h0a.97.97,0,0,1-.987-1.183h-.009l1.353-7.676h8.068l-1.3,7.379a2.793,2.793,0,0,0,2.749,3.277h16.178l.315-1.8h0a.97.97,0,0,1-.987-1.183h-.009L130.1,17.6A2.7,2.7,0,0,0,127.347,14.32Z" transform="translate(-81.62 -14.32)" fill="#15507f"></path>
    <path id="Pfad_3" data-name="Pfad 3" d="M246.6,14.32H232.9l-.315,1.8h0a.97.97,0,0,1,.987,1.183l-1.719,9.744L221.177,16.371a6.968,6.968,0,0,0-4.936-2.043H201.1l-.315,1.8a.966.966,0,0,1,.987,1.183l-3.821,21.668a2.788,2.788,0,0,0,2.749,3.277h13.71l.315-1.8h0a.97.97,0,0,1-.987-1.183l1.719-9.744L226.13,40.2a6.968,6.968,0,0,0,4.936,2.043H246.2l.315-1.8a.964.964,0,0,1-1-.979,1.649,1.649,0,0,1,.017-.2h-.009l3.821-21.676A2.684,2.684,0,0,0,246.6,14.32Z" transform="translate(-98.942 -14.32)" fill="#15507f"></path>
    <path id="Pfad_4" data-name="Pfad 4" d="M142.509,20.09l-2.468,13.957a6.983,6.983,0,0,0,6.876,8.2H177.41a6.984,6.984,0,0,0,6.876-5.77l1.447-8.221a2.793,2.793,0,0,0-2.749-3.277H162.747l-.587,3.336a2.793,2.793,0,0,0,2.749,3.277h1.94l-.306,1.728a2.793,2.793,0,0,1-2.749,2.306h-2.4a2.793,2.793,0,0,1-2.749-3.277l1.608-9.106A2.793,2.793,0,0,1,163,20.933h21.676a2.786,2.786,0,0,0,2.749-2.306l.757-4.306H149.377A6.975,6.975,0,0,0,142.509,20.09Z" transform="translate(-90.306 -14.32)" fill="#15507f"></path>
  </g>
  <path id="Pfad_5" data-name="Pfad 5" d="M49.156,38.34a26.1,26.1,0,1,0-46.11,0Z" fill="#57a8d9"></path>
  <path id="Pfad_6" data-name="Pfad 6" d="M4.83,47.18a26.091,26.091,0,0,0,43.982,0Z" transform="translate(-0.719 -7.028)" fill="#15507f"></path>
  <path id="Pfad_7" data-name="Pfad 7" d="M43.125,14.32l-15.1,26.153L12.93,14.32Z" transform="translate(-1.926 -2.133)" fill="#fff"></path>
</svg>
